/* XPM */
static char *result[] = {
/* columns rows colors chars-per-pixel */
"32 32 4 1 ",
"  c #3A4467",
". c #8B9BB5",
"X c #ECF0F1",
"o c None",
/* pixels */
"oooooooooooooooooooooooooooooooo",
"oooooooooooooooooooooooooooooooo",
"oooooooooooooooooooooooooooooooo",
"oooooooooooooooooooooooooooooooo",
"oooooooooooooooooooooooooooooooo",
"ooooooooooooooooooo   oooooooooo",
"oooooooooooooooooo ooo ooooooooo",
"ooooooooo   oooooo ooo ooooooooo",
"oooooooo ooo ooooo ooooooooooooo",
"oooooooo ooo ooooo ooooooooooooo",
"ooooooo.......ooo.......oooooooo",
"ooooooo.......ooo.......oooooooo",
"ooooooo... ...ooo... ...oooooooo",
"ooooooo... ...ooo... ...oooooooo",
"ooooooo.......ooo.......oooooooo",
"ooooooo.......ooo.......oooooooo",
"ooooooo.......ooo.......oooooooo",
"oooooooooooooooooooooooooooooooo",
"oooooooooooooooooooooooooooooooo",
"oooooooooooooooooooooooooooooooo",
"oooooooooooooooooooooooooooooooo",
"o                              o",
"o XXXXXXXXXXXXXXXXXXXXXXXXXXXX o",
"o XX X XX X XX X XX X XXXXXXXX o",
"o XXX XXXX XXXX XXXX XXXXXXXXX o",
"o XX X XX X XX X XX X XXXXXXXX o",
"o XXXXXXXXXXXXXXXXXXXXXXXXXXXX o",
"o                              o",
"oooooooooooooooooooooooooooooooo",
"oooooooooooooooooooooooooooooooo",
"oooooooooooooooooooooooooooooooo",
"oooooooooooooooooooooooooooooooo"
};
