/* XPM */
static char *result[] = {
/* columns rows colors chars-per-pixel */
"32 32 10 1 ",
"  c #252B43",
". c #3A4467",
"X c #F77622",
"o c #63C64F",
"O c #104E89",
"+ c #628DD1",
"@ c #8B9BB5",
"# c #C0CCDC",
"$ c #ECF0F1",
"% c None",
/* pixels */
"%%%%%%%%%%%%%%%%%%%%%%%%%%%%%%%%",
"%%%%%%%.................. %%%%%%",
"%%%%%%%.++++++++++++++++. %%%%%%",
"%%%%%%%.++OOOOOOOO++++++. %%%%%%",
"%%%%%%%.++$$$$$$$$++++++. %%%%%%",
"%%%%%%%.++$X$X$X$$@###++. %%%%%%",
"%%%%%%%.++$$$$$$$$@###++. %%%%%%",
"%%%%%%%.++$X$$$$$$@###++. %%%%%%",
"%%%%%%%.++$$$$$$$$@###++. %%%%%%",
"%%%%%%%.++$$$$$$$$@###++. %%%%%%",
"%%%%%%%.+++++++@@@@###++. %%%%%%",
"%%%%%%%.+++++++#######++. %%%%%%",
"%%%%%%%.++++++++++++++++. %%%%%%",
"%%%%%%%...............o.. %%%%%%",
"%%%%%%%%%%%%%%%   %%%%%%%%%%%%%%",
"%%%%%%%%%%%%%%%.. %%%%%%%%%%%%%%",
"%%%%%%%%%%..........    %%%%%%%%",
"%%%%%%%%%%%%%%%%%%%%%%%%%%%%%%%%",
"%%%..........................%%%",
"%%..@.........................%%",
"%%.@..........................%%",
"%%.....##.#..#.###..##.##.....%%",
"%%....#...##.#..#..#...#.#....%%",
"%%....###.##.#..#..###.#.#....%%",
"%%....#...#.##..#..#...##.....%%",
"%%....###.#..#..#..###.#.#....%%",
"%%............................%%",
"%%............................%%",
"%% .......................... %%",
"%%%                          %%%",
"%%%%%%%%%%%%%%%%%%%%%%%%%%%%%%%%",
"%%%%%%%%%%%%%%%%%%%%%%%%%%%%%%%%"
};
