/* XPM */
static char *result[] = {
/* columns rows colors chars-per-pixel */
"32 32 9 1 ",
"  c #252B43",
". c #67386C",
"X c #265C42",
"o c #3A4467",
"O c #F77622",
"+ c #3E8948",
"@ c #5B6986",
"# c #8B9BB5",
"$ c None",
/* pixels */
"$$$$$$$$$$$$$$$$$$$$$$$$$$$$$$$$",
"$$$$$$$$$$$$$$$$$$$$$$$$$$$$$$$$",
"$$$$$$$$$$$$$$$$$$$$$$$$$$$$$$$$",
"$$$$$$$$$$$$$$$$$$$$$$$$$$$$$$$$",
"$$$$$$$$$$$$$$$$$$$$$$$$$$$$$$$$",
"$$$$$$$$$$$$$$$$$$$$$$$$$$$$$$$$",
"$$$$$$$$$$$$$$$$$$$$$$$$$$$$$$$$",
"$$$$$$$$$$$$$$$$$$$$$$$$$$$$$$$$",
"$$$$$$$$$$$$$@@@@@@$$$$$$$$$$$$$",
"$$$$$$$$$$$$@@@@@@@@$$$$$$$$$$$$",
"$$$$$$$$$$$$@@@@@@@@$$$$$$$$$$$$",
"$$$$$$$$$$@@o@@@@@@o$$$$$$$$$$$$",
"$$$$$$$$$$@@oooooooo$$$$$$$$$$$$",
"$$$$$$$$$$@@oooooooo$$$$$$$$$$$$",
"$$$$$$$$$$@@ooooOOo $$$$$$$$$$$$",
"$$$$$$$$$$$$OO  OO  $$$$$$$$$$$$",
"$$$$$$$$$$$$OOOOOO $$$$$$$$$$$$$",
"$$$$$$$$$$$$+OOOOXXX$$$$$$$$$$$$",
"$$$$$$$$$$$$++++++XX$$$$$$$$$$$$",
"$$$$$$$$$$$$+++++XX$$$$$$$$$$$$$",
"$$$$$$$$$$$$+++++XX..$$$$$$$$$$$",
"$$$$$$$$$$$$$$oOO ...$$$$$$$$$$$",
"$$$$$$$$$$$$$#ooo ..$$$$$$$$$$$$",
"$$$$$$$$$$$$$#####.$$$$$$$$$$$$$",
"$$$$$$$$$$$$$$$$$$$$$$$$$$$$$$$$",
"$$$$$$$$$$$$$$$$$$$$$$$$$$$$$$$$",
"$$$$$$$$$$$$$$$$$$$$$$$$$$$$$$$$",
"$$$$$$$$$$$$$$$$$$$$$$$$$$$$$$$$",
"$$$$$$$$$$$$$$$$$$$$$$$$$$$$$$$$",
"$$$$$$$$$$$$$$$$$$$$$$$$$$$$$$$$",
"$$$$$$$$$$$$$$$$$$$$$$$$$$$$$$$$",
"$$$$$$$$$$$$$$$$$$$$$$$$$$$$$$$$"
};
