/* XPM */
static char *result[] = {
/* columns rows colors chars-per-pixel */
"32 32 4 1 ",
"  c #140F0F",
". c #4633FF",
"X c #0C0808",
"o c #100C0C",
/* pixels */
" . . . . . . . . . . . . . . . .",
"................................",
" . . . . . . . . . . . . . . . .",
"................................",
" . . . . . . . . . . . . . . . .",
"................................",
" . . . . . . . . . . . . . . . .",
"................................",
" . . . . . . . . . . . . . . . .",
"................................",
" . . . . . . . . . . . . . . . .",
"................................",
" . . . . . . . . . . . . . . . .",
"................................",
" . . . . . . . . . . . . . . . .",
"................................",
" . . . . . . . . . . . . . . . .",
"................................",
" . . . . . . . . . . . . . . . .",
"................................",
"X. . . . . . . . . . . . . . . .",
"................................",
"o. . . . . . . . . . . . . . . .",
"................................",
" . . . . . . . . . . . . . . . .",
"................................",
" . . . . . . . . . . . . . . . .",
"................................",
" . . . . . . . . . . . . . . . .",
"................................",
" . . . . . . . . . . . . . . . .",
"................................"
};
